#!OML:ASF \\sashay\E\basketball\basketball\Project 1\Capture day 1\Session 1\Subject.ASF
:FULLY-SPECIFIED
:DEGREES
1
root 0.974721 15.8445 4.37602 178.647 9.15153 -179.761
lowerback 0.900453 -0.386901 -1.03434
upperback 5.4397 -0.223008 0.175341
thorax 5.11801 -0.0430699 0.762971
lowerneck -1.71511 2.05875 -10.6927
upperneck -5.1078 3.6233 12.4487
head -1.62083 1.94521 5.48447
rclavicle 2.07233e-014 -1.78906e-015
rhumerus -41.7347 27.2523 -100.607
rradius 99.2048
rwrist -31.8646
rhand -18.3344 27.6691
rfingers 7.12502
rthumb 7.94758 -2.16151
lclavicle 2.07233e-014 -1.78906e-015
lhumerus -40.9582 -27.6261 102.066
lradius 98.9892
lwrist 43.4319
lhand -19.7474 32.257
lfingers 7.12502
lthumb 6.58366 62.1347
rfemur -5.80791 3.13183 18.4904
rtibia 29.3162
rfoot -18.9028 -25.7411
rtoes -13.051
lfemur -3.98716 3.26668 -12.5601
ltibia 27.5168
lfoot -19.5437 18.2027
ltoes -8.69211
2
root 0.976133 15.8457 4.37491 178.695 9.18256 -179.794
lowerback 0.831691 -0.374451 -1.13136
upperback 5.4151 -0.209033 0.210082
thorax 5.13199 -0.0430546 0.853456
lowerneck -1.60877 1.97757 -11.3295
upperneck -5.2113 3.55855 13.1038
head -1.67993 1.91687 5.79843
rclavicle -6.49777e-015 9.93923e-016
rhumerus -41.7642 27.2879 -100.555
rradius 99.2104
rwrist -31.7047
rhand -18.2679 27.6002
rfingers 7.12502
rthumb 8.01177 -2.22798
lclavicle -6.49777e-015 9.93923e-016
lhumerus -40.9917 -27.5659 102.115
lradius 99.0544
lwrist 43.4198
lhand -19.6709 32.4171
lfingers 7.12502
lthumb 6.65752 62.2925
rfemur -5.84698 3.23957 18.4539
rtibia 29.2729
rfoot -19.3915 -25.462
rtoes -10.882
lfemur -4.01843 3.11461 -12.6128
ltibia 27.5226
lfoot -20.105 17.9388
ltoes -5.42121
3
root 0.97731 15.8421 4.37437 178.72 9.18986 -179.828
lowerback 0.785108 -0.363154 -1.21878
upperback 5.3996 -0.19457 0.223681
thorax 5.14268 -0.0412151 0.91684
lowerneck -1.62703 2.18821 -10.3698
upperneck -5.11335 3.74262 11.8467
head -1.63758 1.99622 5.23793
rclavicle -5.52249e-015 -8.94531e-016
rhumerus -41.8165 27.286 -100.523
rradius 99.2596
rwrist -31.7054
rhand -18.1901 27.5567
rfingers 7.12502
rthumb 8.08688 -2.26854
lclavicle -5.52249e-015 -8.94531e-016
lhumerus -41.0329 -27.5151 102.134
lradius 99.1067
lwrist 43.4866
lhand -19.7636 32.4926
lfingers 7.12502
lthumb 6.56801 62.3707
rfemur -5.8654 3.28526 18.4132
rtibia 29.2233
rfoot -19.4602 -25.3704
rtoes -10.3045
lfemur -4.08198 3.06519 -12.6524
ltibia 27.5635
lfoot -19.6941 18.2689
ltoes -7.85471
4
root 0.979031 15.8396 4.3732 178.704 9.1833 -179.805
lowerback 0.783549 -0.360186 -1.20156
upperback 5.40409 -0.190014 0.212514
thorax 5.14799 -0.0377466 0.89583
lowerneck -1.5327 1.99387 -11.1837
upperneck -5.22612 3.55246 12.8489
head -1.69067 1.9083 5.69235
rclavicle 7.91411e-015 -1.68967e-015
rhumerus -41.9044 27.294 -100.581
rradius 99.3068
rwrist -31.7058
rhand -18.0988 27.4957
rfingers 7.12502
rthumb 8.175 -2.32616
lclavicle 7.91411e-015 -1.68967e-015
lhumerus -41.0798 -27.4439 102.114
lradius 99.1194
lwrist 43.3629
lhand -19.8908 32.3876
lfingers 7.12502
lthumb 6.44522 62.2695
rfemur -5.81585 3.35228 18.4209
rtibia 29.1843
rfoot -20.0757 -24.9455
rtoes -7.9495
lfemur -4.07578 3.00684 -12.6318
ltibia 27.5917
lfoot -19.3078 18.6306
ltoes -10.4796
5
root 0.979083 15.8388 4.37065 178.714 9.17066 -179.723
lowerback 0.742388 -0.351459 -1.02466
upperback 5.42092 -0.178836 0.166297
thorax 5.18729 -0.022874 0.749401
lowerneck -1.66048 2.179 -10.2316
upperneck -5.08529 3.72853 11.7888
head -1.61886 1.98912 5.19747
rclavicle -1.59152e-014 3.62782e-015
rhumerus -41.9387 27.2414 -100.712
rradius 99.3091
rwrist -31.651
rhand -18.0253 27.5564
rfingers 7.12502
rthumb 8.24588 -2.26271
lclavicle -1.59152e-014 3.62782e-015
lhumerus -41.1187 -27.4815 102.027
lradius 99.1744
lwrist 43.2243
lhand -19.9204 32.4673
lfingers 7.12502
lthumb 6.41662 62.3501
rfemur -5.78999 3.25962 18.4723
rtibia 29.1578
rfoot -20.4007 -24.5921
rtoes -6.5365
lfemur -4.06338 2.98564 -12.5357
ltibia 27.6116
lfoot -19.9524 18.2265
ltoes -7.19527
6
root 0.978763 15.8388 4.36915 178.713 9.17345 -179.758
lowerback 0.701854 -0.326275 -1.00419
upperback 5.43734 -0.141769 0.112523
thorax 5.22662 -0.00196768 0.683735
lowerneck -1.51519 2.06242 -10.7192
upperneck -5.28387 3.62225 12.4041
head -1.7051 1.93833 5.47202
rclavicle -4.29375e-014 9.39258e-015
rhumerus -41.9049 27.1915 -100.823
rradius 99.2544
rwrist -31.6578
rhand -18.2452 27.8003
rfingers 7.12502
rthumb 8.03366 -2.02699
lclavicle -4.29375e-014 9.39258e-015
lhumerus -41.1323 -27.5876 101.961
lradius 99.2405
lwrist 43.235
lhand -20.0695 32.4879
lfingers 7.12502
lthumb 6.27272 62.3751
rfemur -5.78312 3.1588 18.4126
rtibia 29.1474
rfoot -20.1906 -24.6219
rtoes -7.18351
lfemur -4.05895 3.04645 -12.5642
ltibia 27.6218
lfoot -20.3497 17.9
ltoes -4.79872
7
root 0.979014 15.8404 4.36917 178.671 9.20826 -179.86
lowerback 0.73641 -0.318726 -1.17532
upperback 5.44377 -0.127637 0.132477
thorax 5.21468 -0.00269729 0.800808
lowerneck -1.49016 2.06898 -10.822
upperneck -5.32416 3.62727 12.3712
head -1.72309 1.94081 5.4786
rclavicle -7.82715e-015 2.23633e-015
rhumerus -41.8757 27.3189 -100.806
rradius 99.1979
rwrist -31.6938
rhand -18.4734 27.9341
rfingers 7.12502
rthumb 7.81348 -1.90156
lclavicle -7.82715e-015 2.23633e-015
lhumerus -41.1337 -27.5501 102.009
lradius 99.2649
lwrist 43.1092
lhand -20.2327 32.2447
lfingers 7.12502
lthumb 6.11519 62.1364
rfemur -5.75371 3.17857 18.2994
rtibia 29.1526
rfoot -20.0772 -24.6414
rtoes -7.48837
lfemur -4.01752 2.98818 -12.6918
ltibia 27.6333
lfoot -20.1849 18.1297
ltoes -5.95399
8
root 0.978135 15.839 4.36986 178.636 9.23175 -179.891
lowerback 0.796413 -0.3108 -1.24374
upperback 5.4452 -0.116415 0.166893
thorax 5.18231 -0.000378647 0.875219
lowerneck -1.57511 2.08841 -11.0933
upperneck -5.23583 3.65738 12.4939
head -1.69347 1.96065 5.56359
rclavicle -5.18083e-015 6.95746e-016
rhumerus -41.8134 27.3907 -100.737
rradius 99.1448
rwrist -31.7016
rhand -18.5028 27.9251
rfingers 7.12502
rthumb 7.78502 -1.9116
lclavicle -5.18083e-015 6.95746e-016
lhumerus -41.1275 -27.4707 102.075
lradius 99.364
lwrist 42.9492
lhand -20.2552 32.2948
lfingers 7.12502
lthumb 6.09342 62.1872
rfemur -5.73938 3.05132 18.2652
rtibia 29.1661
rfoot -19.5285 -24.8788
rtoes -9.60801
lfemur -3.98045 2.99027 -12.7229
ltibia 27.6405
lfoot -20.0812 18.1934
ltoes -6.56652
9
root 0.978448 15.8362 4.37101 178.622 9.21296 -179.864
lowerback 0.858529 -0.289731 -1.22555
upperback 5.4264 -0.0904541 0.177831
thorax 5.12633 0.0133427 0.877256
lowerneck -1.70642 2.03276 -11.1946
upperneck -5.07749 3.58633 12.6177
head -1.6203 1.92993 5.62312
rclavicle 2.8948e-015 1.14301e-015
rhumerus -41.8186 27.3802 -100.721
rradius 99.1212
rwrist -31.8015
rhand -18.6056 28.0818
rfingers 7.12502
rthumb 7.68586 -1.75857
lclavicle 2.8948e-015 1.14301e-015
lhumerus -41.1262 -27.41 102.07
lradius 99.5118
lwrist 42.6671
lhand -19.636 32.6467
lfingers 7.12502
lthumb 6.6912 62.521
rfemur -5.73588 2.93404 18.2984
rtibia 29.1805
rfoot -18.911 -25.183
rtoes -12.0267
lfemur -3.99018 3.27075 -12.6306
ltibia 27.6592
lfoot -19.833 17.9987
ltoes -7.30304
10
root 0.978033 15.8374 4.36896 178.635 9.21281 -179.875
lowerback 0.84949 -0.277032 -1.22072
upperback 5.41113 -0.0742628 0.156922
thorax 5.11491 0.0216128 0.853418
lowerneck -1.63586 2.04144 -11.1866
upperneck -5.14572 3.59619 12.5939
head -1.65264 1.93258 5.61306
rclavicle 5.2181e-015 -6.95746e-016
rhumerus -41.8246 27.3531 -100.751
rradius 99.0865
rwrist -31.8933
rhand -18.5914 28.2737
rfingers 7.12502
rthumb 7.69954 -1.5661
lclavicle 5.2181e-015 -6.95746e-016
lhumerus -41.1614 -27.3621 102.054
lradius 99.6512
lwrist 42.3654
lhand -19.1777 32.8479
lfingers 7.12502
lthumb 7.13366 62.7077
rfemur -5.75072 3.05746 18.262
rtibia 29.1877
rfoot -19.1551 -25.0555
rtoes -11.2401
lfemur -4.02855 3.3751 -12.6322
ltibia 27.7039
lfoot -19.7368 17.9368
ltoes -7.61863
11
root 0.975994 15.8352 4.36891 178.537 9.2311 -179.942
lowerback 0.946946 -0.265006 -1.25064
upperback 5.43576 -0.0517171 0.101663
thorax 5.08484 0.0349582 0.813971
lowerneck -1.67148 1.933 -11.3719
upperneck -5.1594 3.48397 12.9627
head -1.64421 1.88135 5.76352
rclavicle 6.96989e-015 -4.12478e-015
rhumerus -41.8115 27.2844 -100.833
rradius 99.0365
rwrist -31.879
rhand -18.5391 28.3965
rfingers 7.12502
rthumb 7.75003 -1.44144
lclavicle 6.96989e-015 -4.12478e-015
lhumerus -41.3338 -27.5425 102.115
lradius 99.8933
lwrist 42.5707
lhand -20.2309 32.8402
lfingers 7.12502
lthumb 6.11688 62.7319
rfemur -5.65245 3.19333 18.1657
rtibia 29.1966
rfoot -19.7822 -24.6994
rtoes -9.07961
lfemur -3.97803 3.57953 -12.6813
ltibia 27.7631
lfoot -19.1916 18.126
ltoes -10.4776
12
root 0.972536 15.832 4.36896 178.442 9.2538 -179.956
lowerback 1.06007 -0.221977 -1.1669
upperback 5.46124 0.0117446 0.0173287
thorax 5.04526 0.0748823 0.682179
lowerneck -1.62794 1.92077 -11.2633
upperneck -5.21249 3.47574 13.0016
head -1.66428 1.87575 5.75691
rclavicle -1.83503e-014 -3.18055e-015
rhumerus -41.8766 27.232 -100.936
rradius 99.0418
rwrist -31.813
rhand -18.6938 28.5075
rfingers 7.12502
rthumb 7.60075 -1.33591
lclavicle -1.83503e-014 -3.18055e-015
lhumerus -41.5817 -27.8774 102.136
lradius 100.185
lwrist 42.7724
lhand -20.989 32.9137
lfingers 7.12502
lthumb 5.38496 62.8253
rfemur -5.54676 3.13734 18.1099
rtibia 29.2042
rfoot -20.2369 -24.2859
rtoes -7.43152
lfemur -3.92806 3.81986 -12.6679
ltibia 27.8338
lfoot -18.6638 18.2669
ltoes -13.4305
13
root 0.96973 15.8309 4.36803 178.419 9.26316 -179.945
lowerback 1.09991 -0.175188 -1.09008
upperback 5.47824 0.0772277 -0.0254509
thorax 5.03889 0.113232 0.597197
lowerneck -1.80331 1.82576 -11.1377
upperneck -5.08739 3.35337 12.9921
head -1.58109 1.82023 5.73737
rclavicle -1.64867e-014 1.39149e-015
rhumerus -41.9357 27.1991 -100.942
rradius 99.0875
rwrist -31.7844
rhand -19.0207 28.4849
rfingers 7.12502
rthumb 7.28514 -1.36966
lclavicle -1.64867e-014 1.39149e-015
lhumerus -41.7428 -28.0536 102.191
lradius 100.365
lwrist 42.6144
lhand -20.4372 33.098
lfingers 7.12502
lthumb 5.91772 62.9954
rfemur -5.52424 2.93074 18.062
rtibia 29.2092
rfoot -20.3138 -23.9748
rtoes -6.90138
lfemur -3.96202 4.22204 -12.5918
ltibia 27.9326
lfoot -18.445 17.9946
ltoes -14.1799
